<?xml version="1.0" encoding="utf-8"?>
<!-- Generator: Adobe Illustrator 25.2.0, SVG Export Plug-In . SVG Version: 6.00 Build 0)  -->
<svg version="1.1" id="Layer_1" xmlns="http://www.w3.org/2000/svg" xmlns:xlink="http://www.w3.org/1999/xlink" x="0px" y="0px"
	 viewBox="0 0 310.6 177.4" style="enable-background:new 0 0 310.6 177.4;" xml:space="preserve">
<style type="text/css">
	.st0{fill:#FFFFFF;}
</style>
<g>
	<path class="st0" d="M245.1,108.5h16.4c0.9,0,1.5-0.6,1.5-1.5V33.3c0-0.9-0.6-1.5-1.5-1.5h-16.4c-0.9,0-1.5,0.6-1.5,1.5V107
		C243.6,107.9,244.2,108.5,245.1,108.5 M42.8,94.2c-13.7,0-23.9-11-23.9-24.1c0-13.2,10.2-24.1,23.9-24.1s23.8,10.8,23.8,24.1
		C66.5,83.2,56.5,94.2,42.8,94.2 M40.9,111.1c12.5,0,21.8-5.6,28.6-12.8c5.6,6.1,12.6,10.2,23.3,10.2h2c0.9,0,1.5-0.6,1.5-1.5V95.2
		c0-0.9-0.5-1.5-1.2-1.8c-8.5-3.4-11.3-8.5-11.3-21.2v-39c0-0.9-0.6-1.5-1.5-1.5H66.1c-0.9,0-1.5,0.6-1.5,1.5v5.3
		C60,34,51.7,29.2,40.8,29.2C19.6,29.2,0.6,47,0.6,70.4C0.6,95.5,19.5,111.1,40.9,111.1 M110.8,108.5h16.4c0.9,0,1.5-0.6,1.5-1.5
		V67.5c0-7.2-1.2-13.4-3.4-18.4c7-2.7,13.6-4.3,17.7-4.3c10.2,0,15.1,6.2,15.1,19.5V107c0,0.9,0.6,1.5,1.5,1.5h16.4
		c0.9,0,1.5-0.6,1.5-1.5V64c0-6.1-1.1-11.4-2.7-16c6.4-2.1,12.8-3.2,17.1-3.2c10.2,0,15.1,6.2,15.1,19.5V107c0,0.9,0.6,1.5,1.5,1.5
		H225c0.9,0,1.5-0.6,1.5-1.5V64c0-21-9.6-35.2-30.4-34.9c-9.7,0.2-19,2.4-28.9,7.2c-5.3-4.7-12.5-7.2-21.3-7.2
		c-9.6,0-18.6,3.5-29.4,8.2c-3.8-2.9-10.8-5.3-15.7-5.3h-2.4c-0.9,0-1.5,0.6-1.5,1.5v12.5c0,0.8,0.5,1.5,1.2,1.8
		c8.5,3.3,11.3,8.5,11.3,21.2V107C109.3,107.9,109.9,108.5,110.8,108.5 M306.9,108.9h2.1c0.9,0,1.5-0.6,1.5-1.5V95.2
		c0-0.9-0.5-1.5-1.2-1.8c-8.5-3.4-11.3-8.5-11.3-21.2V4.8c0-0.9-0.6-1.5-1.5-1.5h-16.4c-0.9,0-1.5,0.6-1.5,1.5v68.7
		C278.6,94.6,289.7,108.9,306.9,108.9 M253.3,22.9c-6.5,0-11.4-5-11.4-11.1c0-6.2,4.9-11.1,11.4-11.1s11.4,4.9,11.4,11.1
		C264.8,17.9,259.9,22.9,253.3,22.9"/>
</g>
<g>
	<g>
		<path class="st0" d="M107.8,159.5c0-10.6,6.8-17.9,16.4-17.9c5.1,0,9.2,2.3,11.8,5.8v-20.1h6v49.4h-4.6c-0.7-2-0.9-4-0.9-5.8
			c-2.7,4-7.2,6.6-12.7,6.6C114.1,177.4,107.8,170,107.8,159.5z M136,160.4v-1.9c0-7.5-4.5-11.6-11.4-11.6
			c-6.2,0-10.8,3.9-10.8,12.3c0,8.4,4.1,12.8,10.3,12.8C131,172.1,136,168,136,160.4z"/>
		<path class="st0" d="M150.3,159.5c0-9.9,6.7-17.9,16.6-17.9c9.6,0,15.4,6.4,15.4,17.1v2.4h-26.2c0.5,6.3,4.5,11.1,11.4,11.1
			c5.2,0,8.4-1.9,10.6-4.9l3.7,3.1c-3.1,4.9-7.8,7.1-14.3,7.1C156.6,177.4,150.3,170,150.3,159.5z M176.1,156
			c-0.5-5.6-3.4-9.2-9.2-9.2c-5.5,0-9.4,3.3-10.6,9.2H176.1z"/>
		<path class="st0" d="M191.1,142.4h4.8c0.7,1.8,0.9,3.7,1,5.4c2.5-3.8,6.6-6.2,11.8-6.2c8.5,0,13.8,4.9,13.8,15.5v19.6h-6v-19.9
			c0-6.5-3.1-9.8-8.3-9.8c-6.7,0-11.1,4.5-11.1,11.9v17.8h-6L191.1,142.4L191.1,142.4z"/>
		<path class="st0" d="M234.8,162v-14.2h-7v-5.4h7v-9.7h6v9.7h14.6v5.4h-14.6v14.6c0,6.4,2.6,9.7,7.8,9.7c2.4,0,4.8-1,6.5-2.3l2.6,4
			c-2.4,2.4-5.7,3.7-9.5,3.7C239.8,177.4,234.8,172.5,234.8,162z"/>
		<path class="st0" d="M260,159.5c0-10.6,6.7-17.9,16.3-17.9c5.1,0,9.1,2.3,11.7,5.9c0.1-1.6,0.4-3.4,0.9-5h5.1v34.2h-4.6
			c-0.7-2-0.9-4-1-5.8c-2.6,4-7.1,6.6-12.5,6.6C266.3,177.4,260,170,260,159.5z M287.9,160.4v-1.9c0-7.5-4.4-11.6-11.2-11.6
			c-6.2,0-10.6,4-10.6,12.4c0,8.4,4,12.9,10.2,12.9C283.1,172.1,287.9,167.9,287.9,160.4z"/>
		<path class="st0" d="M304.6,127.2h6v49.4h-6V127.2z"/>
	</g>
</g>
</svg>
