<?xml version="1.0" encoding="utf-8"?>
<!-- Generator: Adobe Illustrator 25.2.0, SVG Export Plug-In . SVG Version: 6.00 Build 0)  -->
<svg version="1.1" id="Layer_1" xmlns="http://www.w3.org/2000/svg" xmlns:xlink="http://www.w3.org/1999/xlink" x="0px" y="0px"
	 viewBox="0 0 310 176.7" style="enable-background:new 0 0 310 176.7;" xml:space="preserve">
<style type="text/css">
	.st0{fill:none;}
	.st1{fill:#006CB7;}
	.st2{fill:#00BDF2;}
</style>
<rect x="-58.5" y="-55.9" class="st0" width="427" height="308.5"/>
<g>
	<path class="st1" d="M244.5,107.8H261c0.9,0,1.5-0.6,1.5-1.5V32.6c0-0.9-0.6-1.5-1.5-1.5h-16.4c-0.9,0-1.5,0.6-1.5,1.5v73.7
		C243,107.2,243.6,107.8,244.5,107.8 M42.2,93.5c-13.7,0-23.9-11-23.9-24.1c0-13.3,10.2-24.1,23.9-24.1s23.8,10.8,23.8,24.1
		C65.9,82.5,55.9,93.5,42.2,93.5 M40.3,110.4c12.5,0,21.8-5.6,28.6-12.8c5.6,6.1,12.6,10.2,23.3,10.2h2c0.9,0,1.5-0.6,1.5-1.5V94.6
		c0-0.9-0.5-1.5-1.2-1.8c-8.5-3.4-11.3-8.5-11.3-21.2v-39c0-0.9-0.6-1.5-1.5-1.5H65.5c-0.9,0-1.5,0.6-1.5,1.5v5.3
		c-4.6-4.6-12.8-9.4-23.8-9.4C19,28.5,0,46.3,0,69.8C0,94.9,18.9,110.4,40.3,110.4 M110.2,107.8h16.4c0.9,0,1.5-0.6,1.5-1.5V66.9
		c0-7.2-1.2-13.4-3.4-18.4c7-2.7,13.6-4.3,17.7-4.3c10.2,0,15.1,6.2,15.1,19.5v42.6c0,0.9,0.6,1.5,1.5,1.5h16.4
		c0.9,0,1.5-0.6,1.5-1.5V63.4c0-6.1-1.1-11.4-2.7-16c6.4-2.1,12.8-3.2,17.1-3.2c10.2,0,15.1,6.2,15.1,19.5v42.6
		c0,0.9,0.6,1.5,1.5,1.5h16.4c0.9,0,1.5-0.6,1.5-1.5V63.4c0-21-9.6-35.2-30.4-34.9c-9.7,0.2-19,2.4-28.9,7.2
		c-5.3-4.7-12.5-7.2-21.3-7.2c-9.6,0-18.6,3.5-29.4,8.2c-3.8-2.9-10.8-5.3-15.7-5.3h-2.4c-0.9,0-1.5,0.6-1.5,1.5v12.5
		c0,0.8,0.5,1.5,1.2,1.8c8.5,3.3,11.3,8.5,11.3,21.2v37.9C108.7,107.2,109.3,107.8,110.2,107.8 M306.4,108.3h2.1
		c0.9,0,1.5-0.6,1.5-1.5V94.6c0-0.9-0.5-1.5-1.2-1.8c-8.5-3.4-11.3-8.5-11.3-21.2V4.1c0-0.9-0.6-1.5-1.5-1.5h-16.4
		c-0.9,0-1.5,0.6-1.5,1.5v68.7C278,94,289.1,108.3,306.4,108.3 M252.8,22.2c-6.5,0-11.4-5-11.4-11.1c0-6.2,4.9-11.1,11.4-11.1
		s11.4,4.9,11.4,11.1C264.2,17.2,259.3,22.2,252.8,22.2"/>
</g>
<g>
	<g>
		<path class="st2" d="M107.2,158.8c0-10.6,6.8-17.9,16.4-17.9c5.1,0,9.2,2.3,11.8,5.8v-20.1h6v49.4h-4.6c-0.7-2-0.9-4-0.9-5.8
			c-2.7,4-7.2,6.6-12.7,6.6C113.6,176.7,107.2,169.3,107.2,158.8z M135.4,159.7v-1.9c0-7.5-4.5-11.6-11.4-11.6
			c-6.2,0-10.8,3.9-10.8,12.3c0,8.4,4.1,12.8,10.3,12.8C130.4,171.4,135.4,167.3,135.4,159.7z"/>
		<path class="st2" d="M149.7,158.9c0-9.9,6.7-17.9,16.6-17.9c9.6,0,15.4,6.4,15.4,17.1v2.4h-26.2c0.5,6.3,4.5,11.1,11.4,11.1
			c5.2,0,8.4-1.9,10.6-4.9l3.7,3.1c-3.1,4.9-7.8,7.1-14.3,7.1C156.1,176.7,149.7,169.3,149.7,158.9z M175.5,155.4
			c-0.5-5.6-3.4-9.2-9.2-9.2c-5.5,0-9.4,3.3-10.6,9.2H175.5z"/>
		<path class="st2" d="M190.5,141.7h4.8c0.7,1.8,0.9,3.7,1,5.4c2.5-3.8,6.6-6.2,11.8-6.2c8.5,0,13.8,4.9,13.8,15.5v19.6h-6v-19.9
			c0-6.5-3.1-9.8-8.3-9.8c-6.7,0-11.1,4.5-11.1,11.9v17.8h-6L190.5,141.7L190.5,141.7z"/>
		<path class="st2" d="M234.2,161.3v-14.2h-7v-5.4h7V132h6v9.7h14.6v5.4h-14.6v14.6c0,6.4,2.6,9.7,7.8,9.7c2.4,0,4.8-1,6.5-2.3
			l2.6,4c-2.4,2.4-5.7,3.7-9.5,3.7C239.2,176.7,234.2,171.8,234.2,161.3z"/>
		<path class="st2" d="M259.4,158.8c0-10.6,6.7-17.9,16.3-17.9c5.1,0,9.1,2.3,11.7,5.9c0.1-1.6,0.4-3.4,0.9-5h5.1v34.2h-4.6
			c-0.7-2-0.9-4-1-5.8c-2.6,4-7.1,6.6-12.5,6.6C265.7,176.7,259.4,169.3,259.4,158.8z M287.4,159.7v-1.9c0-7.5-4.4-11.6-11.2-11.6
			c-6.2,0-10.6,4-10.6,12.4c0,8.4,4,12.9,10.2,12.9C282.5,171.5,287.4,167.2,287.4,159.7z"/>
		<path class="st2" d="M304,126.6h6v49.4h-6V126.6z"/>
	</g>
</g>
</svg>
